<?xml version="1.0" encoding="UTF-8"?>
<svg id="_Слой_1" data-name="Слой 1" xmlns="http://www.w3.org/2000/svg" width="87.5" height="100" viewBox="0 0 87.5 100">
  <path d="M62.5,53.12h-15.62v-15.62c0-3.48.35-6.37-3.13-6.37s-3.12,2.89-3.12,6.37v15.62h-15.62c-3.48,0-6.41-.31-6.41,3.17s2.93,3.08,6.41,3.08h15.62v15.62c0,3.48-.35,6.45,3.12,6.45s3.13-2.97,3.13-6.45v-15.62h15.62c3.48,0,6.41.39,6.41-3.08s-2.93-3.17-6.41-3.17ZM85.42,21.88l-17.71-17.71c-1.18-1.18-3.54-4.17-5.21-4.17H12.5C2.1,0,0,2.1,0,12.5v75c0,10.4,2.1,12.5,12.5,12.5h61.46c10.4,0,13.54-2.1,13.54-12.5V25c0-1.67-.9-1.95-2.08-3.12ZM78.89,24.84h-6.83c-5.2,0-9.44-4.23-9.44-9.44v-6.83l16.27,16.27ZM75.2,94.03H12.3c-3.47,0-6.29-2.82-6.29-6.29V12.26c0-3.47,2.82-6.29,6.29-6.29h44.03v9.44c0,8.67,7.05,15.73,15.73,15.73h9.44v56.61c0,3.47-2.82,6.29-6.29,6.29Z" stroke-width="0"/>
</svg>