<?xml version="1.0" encoding="UTF-8"?>
<svg id="_Слой_1" data-name="Слой 1" xmlns="http://www.w3.org/2000/svg" width="100" height="100" viewBox="0 0 100 100">
  <path d="m50,100C22.39,100-.03,77.56,0,49.96.03,22.34,22.48-.06,50.07,0c27.58.06,49.91,22.4,49.93,49.97.03,27.6-22.4,50.03-50,50.03Zm-.02-6.26c24.12.02,43.73-19.55,43.77-43.69.04-24.12-19.51-43.73-43.66-43.8-24.16-.07-43.84,19.58-43.83,43.76,0,24.13,19.59,43.72,43.72,43.73Z" stroke-width="0"/>
  <path d="m37.08,46.87c6.59,0,12.88,0,19.16,0,4.55,0,9.11-.03,13.66.01,2.63.03,4.14,2.58,2.84,4.72-.73,1.21-1.89,1.53-3.24,1.53-9.8-.02-19.6,0-29.41,0h-2.97c.4.45.65.76.93,1.05,3.71,3.71,7.42,7.42,11.13,11.13.21.21.43.43.64.65,1.29,1.43,1.31,3.16.08,4.44-1.27,1.3-3.11,1.33-4.52-.07-5.85-5.8-11.67-11.63-17.47-17.48-1.5-1.51-1.49-4.17,0-5.68,5.8-5.85,11.63-11.67,17.47-17.48,1.4-1.39,3.26-1.36,4.52-.06,1.26,1.3,1.23,3.09-.19,4.52-3.84,3.89-7.72,7.74-11.57,11.6-.3.3-.58.62-1.07,1.13Z" stroke-width="0"/>
</svg>