<?xml version="1.0" encoding="UTF-8"?>
<svg id="_Слой_1" data-name="Слой 1" xmlns="http://www.w3.org/2000/svg" width="86.42" height="100" viewBox="0 0 86.42 100">
  <g>
    <path d="M53.03,100H14.16c-3.95,0-6.43-2.29-6.61-6.13-.14-2.88-.32-5.76-.5-8.64-.09-1.41-.18-2.83-.26-4.24l-2.27-38.38c-.18-3-.37-6.01-.52-9.01,0-.19-.02-.37-.04-.56-.1-1.34-.26-3.37,1.32-5.15,1.54-1.73,3.96-2.41,6.33-1.75,2.29.63,3.87,2.54,4.02,4.85.17,2.7.34,5.4.5,8.11l.75,12.02c.2,3.17.4,6.35.6,9.52.13,2.17.26,4.33.38,6.5.12,2.01.23,4.01.35,6.02.2,3.23.4,6.46.61,9.69l.3,4.71c0,.09.01.18.02.27h48.53c.14-2.47.3-4.93.45-7.38l.57-9.46c.11-1.85.22-3.71.33-5.56.13-2.18.27-4.36.41-6.54l.37-6.03c.11-1.87.22-3.74.33-5.61l.45-7.51c.18-3.02.36-6.04.57-9.06.2-2.92,2.98-5.24,6.16-5.09,3.03.11,5.54,2.65,5.47,5.55-.06,2.37-.19,4.77-.32,7.09l-.05.95c-.11,1.91-.22,3.82-.34,5.72l-.2,3.23c-.26,4.36-.52,8.72-.77,13.08l-1.55,26.16c-.13,2.1-.26,4.27-.35,6.4-.15,3.9-2.64,6.23-6.67,6.23h-19.46ZM43.3,95.55h29.19c1.82,0,2.17-.66,2.22-1.95.08-2.18.22-4.38.35-6.5l1.55-26.15c.26-4.36.51-8.73.78-13.09l.2-3.24c.12-1.9.24-3.79.34-5.69l.05-.96c.13-2.28.26-4.64.32-6.95,0-.4-.57-.97-1.18-.99-.83-.01-1.53.55-1.56.95-.21,3.01-.39,6.01-.57,9.02l-.45,7.51c-.11,1.87-.22,3.74-.33,5.62l-.37,6.04c-.14,2.18-.27,4.36-.41,6.53-.11,1.85-.22,3.7-.33,5.55l-.57,9.48c-.17,2.72-.34,5.44-.49,8.16-.14,2.48-1.13,3.4-3.66,3.4H18.14c-1.21.1-1.99-.34-2.43-.73-.43-.38-.95-1.07-.99-2.21-.02-.49-.05-.97-.08-1.46l-.3-4.76c-.2-3.24-.41-6.47-.61-9.7-.12-2.01-.24-4.02-.35-6.04-.12-2.16-.25-4.32-.38-6.48-.19-3.17-.4-6.34-.6-9.51l-.75-12.03c-.16-2.7-.33-5.4-.5-8.09-.03-.43-.28-.72-.76-.85-.72-.2-1.41-.04-1.81.42-.28.32-.3.7-.21,1.85.02.22.03.45.05.67.15,2.99.34,5.98.52,8.97l2.27,38.38c.08,1.41.17,2.82.26,4.22.18,2.9.37,5.8.51,8.7.06,1.26.41,1.9,2.17,1.9h29.13Z" stroke-width="0"/>
    <path d="M80.17,22.17c-.07,0-.14,0-.21,0h-.22s-73.61,0-73.61,0c-3.28,0-5.85-2.09-6.11-4.97-.14-1.54.35-3,1.36-4.11,1.1-1.21,2.68-1.87,4.45-1.88,3.92-.01,7.84,0,11.77,0h4.91c.93-5.29,5.24-9.72,10.67-10.89.87-.19,1.84-.28,2.89-.29,1.76,0,3.53,0,5.29,0,2.81.01,5.72.02,8.57-.03,7.49-.15,12.77,5.49,13.82,11.2h4.43c4.11,0,8.23,0,12.35,0,1.75,0,3.31.63,4.41,1.77,1,1.04,1.52,2.41,1.47,3.88-.09,2.82-2.42,5.09-5.41,5.29-.28.02-.55.02-.83.02ZM43.15,17.72h36.84c.24,0,.49,0,.73-.01.73-.05,1.23-.55,1.25-.99,0-.26-.07-.47-.23-.64-.25-.26-.69-.41-1.21-.41-4.11,0-8.22,0-12.34,0h-4.94c-2.19,0-3.45-.51-3.8-3.22-.52-3.95-4.3-8.08-9.42-7.98-2.9.06-5.83.05-8.67.03-1.75,0-3.5-.01-5.25,0-.74,0-1.4.07-1.97.19-3.75.81-6.81,4.03-7.28,7.68-.32,2.48-1.29,3.31-3.84,3.31h-5.4c-3.92,0-7.84,0-11.75,0-.5,0-.93.16-1.17.42-.17.19-.25.43-.22.71.05.53.75.92,1.68.92h37.01Z" stroke-width="0"/>
  </g>
  <path d="M58.92,85.63h-.06c-3.55-.03-6.24-2.68-6.24-6.16v-23.22s0-13.93,0-13.93c0-1.68.63-3.23,1.78-4.38,1.17-1.16,2.76-1.81,4.5-1.81h.02c3.51,0,6.26,2.71,6.26,6.16,0,12.4,0,24.81,0,37.21,0,1.64-.64,3.17-1.8,4.32-1.18,1.17-2.76,1.81-4.46,1.81ZM58.9,40.58c-.55,0-1.03.18-1.35.51-.31.31-.47.73-.47,1.23v23.22s0,13.93,0,13.93c0,1.02.73,1.7,1.83,1.71.51,0,1-.18,1.35-.52.22-.22.48-.6.48-1.16,0-12.4,0-24.81,0-37.21,0-1-.75-1.7-1.82-1.71h0Z" stroke-width="0"/>
  <path d="M43.68,85.6c-.76,0-1.52-.13-2.23-.39-1.58-.59-2.81-1.79-3.36-3.3-.28-.76-.41-1.6-.41-2.57-.02-5.39-.01-10.78-.01-16.17v-9.46s0-14.9,0-14.9c0-2.36.95-4.12,2.83-5.24,1.67-.99,3.76-1.17,5.58-.47,1.7.65,2.97,1.97,3.49,3.63.2.63.3,1.34.3,2.12.01,13.54,0,27.09,0,40.63,0,2.4-.99,4.18-2.93,5.28-1,.56-2.14.85-3.27.85ZM43.78,37.12c-.35,0-.7.09-1.01.27-.37.22-.65.46-.65,1.41v14.9s0,9.46,0,9.46c0,5.39,0,10.77.01,16.16,0,.44.05.8.15,1.06.13.36.46.55.72.64.55.2,1.23.14,1.76-.16.45-.26.67-.48.67-1.4,0-13.54,0-27.09,0-40.63,0-.4-.05-.64-.1-.78-.15-.48-.59-.71-.84-.8-.23-.09-.47-.13-.71-.13Z" stroke-width="0"/>
  <path d="M27.85,85.63c-1.73,0-3.32-.63-4.5-1.79-1.16-1.14-1.81-2.68-1.81-4.34,0-4.24,0-8.47,0-12.71v-24.45c0-3.53,2.74-6.2,6.37-6.21h.02c1.77,0,3.41.66,4.6,1.85,1.15,1.15,1.78,2.69,1.78,4.34v10.72c0,8.81-.01,17.61.02,26.42.02,3.74-3.3,6.11-6.37,6.16-.04,0-.08,0-.13,0ZM25.99,60.82v5.98c0,4.23,0,8.47,0,12.7,0,.46.16.86.47,1.17.35.34.85.55,1.43.52.81-.01,2.01-.56,2-1.7-.04-8.81-.03-17.63-.03-26.44v-10.72c0-.47-.16-.88-.47-1.19-.36-.35-.88-.55-1.46-.55h0c-1.18,0-1.93.7-1.94,1.76v18.47Z" stroke-width="0"/>
</svg>