<?xml version="1.0" encoding="UTF-8"?>
<svg id="_Карандаш" data-name="Карандаш" xmlns="http://www.w3.org/2000/svg" width="100" height="99.56" viewBox="0 0 100 99.56">
  <path d="m94.73,65.11c-.03-1.53-1.01-2.57-2.34-2.63-1.36-.06-2.46,1.03-2.59,2.58-.04.47-.02.94-.02,1.41,0,6.56-.11,13.12.04,19.68.11,4.83-2.99,8.5-8.57,8.49-22.54-.04-45.09-.05-67.63,0-6.06.01-8.7-4.15-8.68-8.57.11-20.93.12-41.86,0-62.79-.03-4.66,2.88-8.7,8.63-8.61,6.77.11,13.54.03,20.3.02,1.97,0,3.17-.92,3.19-2.42.02-1.51-1.21-2.52-3.13-2.53-7.08-.01-14.16-.05-21.24,0C5.36,9.81.02,15.19.02,22.54-.01,43.94,0,65.34.03,86.74c0,1.28.16,2.61.53,3.84,1.73,5.73,6.34,8.96,12.74,8.97,11.35.02,22.7,0,34.05,0,11.25,0,22.49.01,33.74-.02,1.4,0,2.84-.04,4.18-.39,5.82-1.53,9.34-5.99,9.46-12.02.09-4.58.03-9.16.03-13.74,0-2.76.03-5.52-.02-8.28Z" stroke-width="0"/>
  <path d="m97.03,6.62c-.95-1.03-1.95-2.02-2.96-3-4.92-4.81-11.52-4.85-16.41.02-14.56,14.51-29.09,29.06-43.6,43.63-.59.6-1.1,1.42-1.33,2.22-1.93,6.79-3.8,13.6-5.66,20.41-.51,1.88.95,3.45,2.86,3.16.41-.06.81-.17,1.21-.28,5.65-1.56,11.32-3.09,16.95-4.72,1.56-.45,3.41-.85,4.49-1.91,14.77-14.6,29.43-29.3,44.1-43.99,2.19-2.2,3.27-4.9,3.3-8.06-.08-2.81-1.01-5.34-2.97-7.45Zm-64,60.41c1.22-4.41,2.36-8.52,3.47-12.52,3.02,3.02,5.99,6,9.05,9.05-4.01,1.11-8.12,2.25-12.52,3.47Zm17.64-6.29c-3.82-3.82-7.63-7.63-11.37-11.37,11.97-11.97,24.02-24.02,36.01-36.01,3.76,3.76,7.61,7.6,11.37,11.36-11.99,11.99-24.04,24.04-36.01,36.02Zm42.81-42.53c-.85,1.03-1.87,1.93-2.76,2.84-3.96-3.96-7.8-7.81-11.73-11.73.97-.92,1.94-2.01,3.07-2.9,2.07-1.63,4.55-2.06,6.66-.54,2.1,1.51,4.04,3.45,5.52,5.57,1.53,2.2.95,4.69-.76,6.76Z" stroke-width="0"/>
</svg>