<?xml version="1.0" encoding="UTF-8"?>
<svg id="_Слой_1" data-name="Слой 1" xmlns="http://www.w3.org/2000/svg" width="500" height="410.28" viewBox="0 0 500 410.28">
  <path d="M274.55,49.46l5.58,1.94c0,.91-.67,1.33-1.27,1.88-6.83,4.34-13.17,9.4-18.91,15.09-31.85,31.65-39.95,80.1-20.13,120.39.69,1.11,1.15,2.35,1.33,3.64-1.15,3.27-4.43,4.55-6.79,6.67-10.56,9.57-19.04,21.21-24.92,34.19-3.91,8.06-6.66,16.63-8.18,25.46-.09.5-.28.97-.55,1.39-.25.2-.54.35-.85.42-11.9.73-23.83-.48-35.34-3.58-16.87-4.42-32.58-12.42-46.07-23.46-9.71-7.8-18.05-17.16-24.67-27.7-1.66-2.76-2.52-5.93-2.49-9.15v-7.58c.49-15.46,3.57-30.72,9.09-45.16,12.35-33.52,36.2-61.58,67.29-79.17,31.43-17.77,68.18-23.71,103.6-16.73,1.13.38,2.23.87,3.27,1.45Z" fill="#563ecf" stroke-width="0"/>
  <path d="M280.61,51.22c8.95-4.84,18.51-8.45,28.43-10.73,32.28-7.85,66.36.3,91.6,21.88,20.8,16.81,34.03,41.23,36.74,67.83,3.88,29.97-5.58,60.13-25.89,82.5-4.08,4.47-8.48,8.64-13.15,12.49-.57.55-1.08,1.16-1.52,1.82-.32.04-.63-.07-.85-.3-1.96-2.94-3.66-6.04-5.09-9.27,0-6.61,1.15-13.22,1.15-19.88,0-18.11-3.15-36.08-9.34-53.1-.48-1.27-.91-2.49-1.27-3.76-.2-1.18-.7-2.28-1.45-3.21-3.94-7.46-7.4-15.22-12.12-22.31-11.38-17.38-26.22-32.24-43.59-43.65-12.54-8.38-26.3-14.76-40.8-18.91-1.03,0-2.3,0-2.85-1.39Z" fill="#e1c26b" stroke-width="0"/>
  <path d="M396.22,226.48l.42.55c6.25,11.56,10.22,24.22,11.7,37.28,6.78,56.79-33.23,108.54-89.9,116.27-29.89,4.63-60.3-4.25-82.99-24.25-3.76-3.21-7.15-6.79-10.73-10.18.11-.3.36-.53.67-.61,7.13.72,14.3.98,21.46.79,18.99-.5,37.71-4.61,55.16-12.12,33.94-14.65,61.2-41.43,76.44-75.11,3.87-8.67,6.99-17.66,9.34-26.86.17-.43.42-.82.73-1.15,2.4-1.8,4.98-3.34,7.7-4.61Z" fill="#f47180" stroke-width="0"/>
  <path d="M274.55,49.46c-11.13-2.29-22.47-3.41-33.83-3.33-14.91.21-29.72,2.58-43.95,7.03-54.43,17.23-94.37,63.84-103.06,120.27-.97,5.16-1.46,10.39-1.45,15.64-.15,2.75-.15,5.5,0,8.24,0,.91.36,1.94-.36,2.85-9.3-15.35-14.89-32.66-16.31-50.56-4.87-57.15,31.41-109.74,86.57-125.49,11.04-3.22,22.51-4.77,34.01-4.61,28.3.14,55.64,10.3,77.17,28.67.45.38.86.81,1.21,1.27Z" fill="#bd71dc" stroke-width="0"/>
  <path d="M280.61,51.22c14.11,3.58,27.58,9.31,39.95,16.97,11.31,6.93,21.66,15.31,30.8,24.92,11.9,12.49,21.5,26.98,28.37,42.8.16.34.34.66.55.97.55.97.67,2.12,1.27,3.03,5.61,14.44,9.13,29.61,10.43,45.04.65,11.04.38,22.11-.79,33.1-.21.22-.55.23-.77.02,0,0-.01-.01-.02-.02-2.97-3.39-5.52-7.15-8.55-10.55-14.77-16.85-34.62-28.43-56.56-32.98-4.12-.91-8.37-1.09-12.49-2.12-2.49-.67-2.24-2.42-1.76-4.36,2.53-9.76,3.71-19.81,3.52-29.89-.34-16.17-3.86-32.11-10.37-46.92-5.96-13.18-14.16-25.22-24.25-35.58-.79-.85-1.88-1.64-1.64-3.03l1.45-1.27c.23-.2.57-.25.85-.12Z" fill="#ac8f5f" stroke-width="0"/>
  <path d="M100.63,213.29c19.31,24.28,47.23,40.2,77.96,44.44,7.1.85,14.25,1.21,21.4,1.09.77,1.09.99,2.48.61,3.76-2.1,15.9-.46,32.07,4.79,47.22,4.14,11.67,10.29,22.53,18.19,32.07.73.91,1.76,1.7,1.7,3.09h0c-21.83-2.05-42.9-9.08-61.59-20.55-35.68-21.56-60.69-57.1-68.93-97.96-1.65-7.39-2.59-14.92-2.79-22.49-.06-1.64-.42-3.21-.61-4.79" fill="#6e76dc" stroke-width="0"/>
  <path d="M500,214.41c0,11.58-9.39,20.97-20.98,20.97-11.58,0-20.97-9.39-20.97-20.98,0-11.54,9.32-20.91,20.85-20.97,11.6,0,21.03,9.37,21.1,20.97Z" fill="#6e76dc" stroke-width="0"/>
  <path d="M13.52,166.58C6.02,166.55-.03,160.44,0,152.94c.03-7.5,6.14-13.55,13.64-13.52,7.43.03,13.45,6.03,13.52,13.46-.03,7.53-6.11,13.63-13.64,13.7Z" fill="#bd71dc" stroke-width="0"/>
  <path d="M266.31,18.06c-4.99.13-9.14-3.8-9.27-8.79-.13-4.99,3.8-9.14,8.79-9.27,4.98-.13,9.13,3.8,9.27,8.78.14,4.99-3.8,9.14-8.78,9.27h0Z" fill="#f47181" stroke-width="0"/>
  <path d="M442.96,293.04c.03,4.99-3.98,9.06-8.97,9.09s-9.06-3.98-9.09-8.97,3.98-9.06,8.97-9.09c.04,0,.08,0,.12,0,4.89-.07,8.9,3.84,8.97,8.73,0,.08,0,.16,0,.24Z" fill="#f47181" stroke-width="0"/>
  <path d="M118.7,410.28c-4.85.13-8.9-3.69-9.03-8.54,0-.12,0-.25,0-.37-.07-4.99,3.92-9.09,8.91-9.15s9.09,3.92,9.15,8.91c.07,4.99-3.92,9.09-8.91,9.15-.04,0-.08,0-.12,0Z" fill="#e1c26b" stroke-width="0"/>
  <path d="M224.96,345.96c-12.65-14.26-21.05-31.77-24.25-50.56-2.09-10.69-2.34-21.66-.73-32.43v-3.03h.48c3.75-1.18,7.65-1.79,11.58-1.82,16.76-2.49,32.81-8.48,47.1-17.58,5.27-3.33,10.06-7.4,15.22-10.85.34-.06.69-.06,1.03,0,5.4,2.73,10.49,6.06,16.06,8.37,10.79,4.65,22.25,7.53,33.95,8.55,13.12.97,26.3-.53,38.86-4.43,7.22-2.31,14.18-5.33,20.79-9.03,1.03-.55,2-1.45,3.33-.97-1.56,8.04-3.98,15.88-7.21,23.4-5.26,12.66-12.3,24.5-20.91,35.16-6.09,7.58-12.89,14.56-20.31,20.85-9.57,8.19-20.17,15.09-31.52,20.55-14.96,7.26-31.02,11.97-47.53,13.94-8.59,1.01-17.24,1.35-25.89,1.03-3.39.06-6.77-.33-10.06-1.15Z" fill="#bd3b73" stroke-width="0"/>
  <path d="M278.67,52.62c6.77,6.89,12.86,14.42,18.19,22.49,11.72,18.74,18.19,40.28,18.73,62.38.31,10.65-.92,21.28-3.64,31.58-.42,1.7,0,2.61,1.33,3.21-.6.65-1.49.94-2.36.79-12.39-1.04-24.86.32-36.74,4-10.85,3.1-21.1,8.02-30.31,14.55-.81.6-1.69,1.11-2.61,1.52-.31.12-.66.12-.97,0-6.43-11.95-10.54-25.01-12.12-38.49-2.07-18.63.9-37.47,8.61-54.56,5.45-12.47,13.32-23.74,23.16-33.16,5.6-5.56,11.89-10.37,18.73-14.31Z" fill="#a47c5b" stroke-width="0"/>
  <path d="M240.48,192.65h.67c1.52,1.15,1.94,3.03,2.91,4.55,7.33,11.9,16.98,22.21,28.37,30.31.91.61,2.3,1.03,2.06,2.61-10.5,9.44-22.67,16.82-35.89,21.76-10.37,4.09-21.31,6.59-32.43,7.4-1.88.31-3.79.48-5.7.48.88-7.62,2.93-15.06,6.06-22.07,5.42-13.7,13.68-26.1,24.25-36.37,2.97-3.21,6.43-5.88,9.7-8.67Z" fill="#b1246e" stroke-width="0"/>
  <path d="M390.88,218.05h.55c1.79,2.69,3.39,5.51,4.79,8.43-2.15,1.99-4.58,3.64-7.21,4.91-.51-.51-.71-1.24-.55-1.94.29-3.89,1.1-7.73,2.42-11.4Z" fill="#e75a49" stroke-width="0"/>
  <path d="M381.79,139.91c-.89-.74-1.37-1.87-1.27-3.03.9.74,1.38,1.87,1.27,3.03Z" fill="#ceb066" stroke-width="0"/>
  <path d="M390.88,218.05c-.38,4.48-1.01,8.93-1.88,13.34l-.61.67c-11.68,7.19-24.65,12.01-38.19,14.19-7.83,1.27-15.78,1.65-23.7,1.15-10.11-.7-20.07-2.74-29.64-6.06-7.69-2.77-15-6.5-21.76-11.09,0-1.88,1.27-2.67,2.3-3.64,8.27-7.73,15.36-16.63,21.04-26.43,4.66-7.9,8.39-16.33,11.09-25.1.2-1.1.66-2.14,1.33-3.03h2.42c30.39,2.7,58.12,18.45,76.02,43.16.76.8,1.3,1.78,1.58,2.85Z" fill="#d34443" stroke-width="0"/>
  <path d="M310.86,172.04c-.78,4.56-2.19,8.98-4.18,13.15-3.51,8.55-7.96,16.69-13.28,24.25-3.82,5.43-8.14,10.48-12.91,15.09-1.82,1.82-3.58,3.76-5.4,5.7h-.61c-3.7-3.39-7.88-6.06-11.7-9.4-6.64-5.98-12.47-12.81-17.34-20.31-1.94-2.31-3.41-4.99-4.3-7.88,5.54-4.55,11.65-8.34,18.19-11.28,10.29-4.9,21.34-8,32.67-9.15,6.23-1.12,12.6-1.18,18.85-.18Z" fill="#cf3d41" stroke-width="0"/>
</svg>