<?xml version="1.0" encoding="UTF-8"?>
<svg id="_Слой_1" data-name="Слой 1" xmlns="http://www.w3.org/2000/svg" width="100" height="100" viewBox="0 0 100 100">
  <path d="m50,100C22.39,100-.03,77.56,0,49.96.03,22.34,22.48-.06,50.07,0c27.58.06,49.91,22.4,49.93,49.97.03,27.6-22.4,50.03-50,50.03Zm-.02-6.26c24.12.02,43.73-19.55,43.77-43.69.04-24.12-19.51-43.73-43.66-43.8-24.16-.07-43.84,19.58-43.83,43.76,0,24.13,19.59,43.72,43.72,43.73Z" stroke-width="0"/>
  <path d="m26.46,45c4.87,3.88,9.7,7.74,14.55,11.6,10.86-12.85,23.24-23.92,37.49-32.9.07.14.12.23.16.33.42.97.82,1.94,1.25,2.9.12.27.1.43-.13.64-2.95,2.76-5.74,5.66-8.42,8.68-4.82,5.42-9.26,11.15-13.35,17.14-4.01,5.87-7.73,11.92-10.81,18.34-.67,1.39-1.25,2.82-1.87,4.23-.04.1-.09.2-.16.34-8.4-8.69-16.77-17.35-25.17-26.03,2.16-1.76,4.29-3.5,6.46-5.27Z" stroke-width="0"/>
</svg>