<?xml version="1.0" encoding="UTF-8"?>
<svg id="_Слой_1" data-name="Слой 1" xmlns="http://www.w3.org/2000/svg" width="88.71" height="100" viewBox="0 0 88.71 100">
  <path d="m35.79,24.44c-.12-2.44-.35-4.78-.34-7.12.02-4.89,4.02-8.72,8.94-8.71,4.86.01,8.81,3.84,8.88,8.68.03,2.25.26,4.53-.62,6.71-.04.11.01.26.03.54.52-.15.99-.24,1.42-.43,5.07-2.2,9.08-5.62,11.89-10.41.58-.99,1.13-2,1.73-2.98,1.73-2.8,5.19-3.67,8.01-2.03,2.69,1.56,3.67,5.02,2.04,7.83-1.88,3.25-3.68,6.58-5.94,9.56-3.39,4.47-7.95,7.56-13.23,9.5-1.03.38-1.37.93-1.36,2,.04,5.88-.14,11.77.08,17.65.14,3.85.81,7.68,1.28,11.51,1.05,8.49,2.16,16.98,3.18,25.47.49,4.02-2.07,7.15-6.17,7.75-3.26.47-6.66-2.18-7.25-5.82-1.16-7.25-2.23-14.51-3.34-21.77-.16-1.02-.33-2.04-.5-3.05l-.31-.03c-.12.57-.26,1.13-.35,1.71-1.18,7.7-2.31,15.41-3.55,23.11-.63,3.9-4.05,6.37-7.73,5.77-3.81-.62-6.17-3.97-5.67-7.94,1.48-11.7,2.95-23.4,4.36-35.11.22-1.86.13-3.75.13-5.63.02-4.59,0-9.19.01-13.78,0-.87-.25-1.4-1.13-1.73-7.52-2.81-13.18-7.77-17.02-14.81-.77-1.41-1.55-2.8-2.32-4.2-1.6-2.91-.74-6.38,1.96-7.95,2.91-1.69,6.32-.74,8.16,2.16,1.48,2.35,2.93,4.74,4.66,6.9,2.3,2.86,5.37,4.82,8.73,6.3.35.15.72.27,1.08.38.12.04.27,0,.23,0Zm-5.32,68.11c-.09,2.27,1.34,3.8,3.22,3.76,1.66-.03,2.88-1.17,3.17-3.03.66-4.26,1.28-8.53,1.92-12.8,1.24-8.19,2.49-16.37,3.75-24.55.2-1.31.79-1.92,1.79-1.94,1.02-.02,1.66.59,1.86,1.86,1.61,10.52,3.21,21.04,4.81,31.57.32,2.1.57,4.21.97,6.29.33,1.76,1.93,2.82,3.62,2.56,1.65-.26,2.76-1.68,2.67-3.45-.03-.52-.1-1.04-.16-1.56-.38-2.93-.77-5.86-1.13-8.79-.75-5.97-1.49-11.95-2.23-17.92-.37-3.04-.97-6.07-1.05-9.11-.16-6.61-.05-13.23-.05-19.84,0-1.74.36-2.07,1.96-2.76,2.48-1.07,5-2.13,7.32-3.5,5.74-3.4,8.85-9.01,11.8-14.69.57-1.11.13-2.31-.89-2.89-1.01-.57-2.23-.3-2.94.74-.45.66-.8,1.39-1.19,2.08-2.6,4.61-6.09,8.36-10.67,11.07-12.78,7.57-29.45,4.18-38.09-8.11-1.06-1.5-1.91-3.15-2.87-4.72-.79-1.3-2.06-1.7-3.19-1.04-1.11.65-1.42,1.9-.72,3.19,1.14,2.07,2.19,4.22,3.54,6.15,1.36,1.96,2.9,3.84,4.61,5.5,3.06,2.99,6.8,4.92,10.85,6.26,1.48.49,1.96.99,1.93,2.23-.23,9.07.59,18.15-.77,27.2-.98,6.54-1.66,13.11-2.49,19.67-.45,3.62-.92,7.24-1.35,10.56ZM49.81,19.06c-.06-.79-.05-1.56-.17-2.31-.41-2.67-2.62-4.55-5.28-4.55-2.66,0-4.94,1.88-5.26,4.55-.18,1.54-.18,3.13.02,4.67.33,2.57,2.67,4.47,5.24,4.47,2.57,0,4.84-1.9,5.27-4.46.13-.78.13-1.59.19-2.36Z" stroke-width="0"/>
  <path d="m6.73,25.99c.99-.01,1.7.65,1.81,1.77.06.69.05,1.39.04,2.08-.01.69.27,1.03.99,1,.69-.02,1.39-.03,2.08.03,1.18.09,1.87.8,1.87,1.84,0,1.02-.73,1.68-1.91,1.77-.93.07-2.16-.18-2.69.32-.5.48-.28,1.73-.35,2.65-.1,1.22-.81,2.01-1.84,2-1.02-.02-1.72-.81-1.78-2.05-.03-.62-.04-1.25-.01-1.88.03-.71-.32-1.01-1-1.01-.73,0-1.46,0-2.19-.05-1.06-.07-1.72-.75-1.76-1.7-.03-.96.58-1.72,1.61-1.85.75-.09,1.53-.08,2.29-.06.77.02,1.06-.33,1.04-1.06-.02-.66-.03-1.32.03-1.98.09-1.13.78-1.81,1.76-1.82Z" stroke-width="0"/>
  <path d="m88.71,31.05c0,.94-.68,1.65-1.73,1.72-.69.05-1.39.05-2.08.03-.78-.02-1.16.3-1.13,1.11.03.66.03,1.32-.02,1.98-.09,1.19-.79,1.9-1.81,1.89-1.01-.01-1.7-.73-1.78-1.93-.04-.69-.04-1.39-.03-2.08,0-.66-.31-.95-.95-.95-.7,0-1.39,0-2.09-.03-1.14-.06-1.86-.71-1.9-1.67-.04-1.02.68-1.73,1.86-1.81.69-.04,1.39-.04,2.08-.05.68,0,1.02-.32.99-1.03-.02-.62-.02-1.25.01-1.88.06-1.27.72-2.02,1.77-2.04,1.09-.02,1.78.75,1.84,2.08.03.62.03,1.25.01,1.88-.02.65.29.96.93.98.8.02,1.6,0,2.4.08.98.09,1.62.81,1.62,1.72Z" stroke-width="0"/>
  <path d="m58.26,0c1.01-.01,1.87.86,1.85,2.11-.02,1.03.28,1.41,1.36,1.39,1.31-.02,2.08.76,2.07,1.85,0,1.06-.7,1.72-2.04,1.74-1.01.01-1.42.33-1.39,1.4.04,1.28-.78,2.11-1.82,2.12-1.07,0-1.78-.75-1.79-2.11-.01-1.03-.4-1.4-1.43-1.4-1.32,0-2.05-.68-2.07-1.72-.02-1.08.76-1.9,2.06-1.86,1.14.03,1.43-.43,1.44-1.46C56.52.78,57.25.01,58.26,0Z" stroke-width="0"/>
  <path d="m22.33,51.39c-1.01,0-1.64-.67-1.73-1.82q-.13-1.56-1.65-1.69c-1.22-.1-1.92-.77-1.88-1.78.04-1,.79-1.65,1.97-1.72q1.45-.08,1.55-1.54c.08-1.24.78-2.01,1.82-1.98,1,.02,1.59.72,1.68,1.99q.11,1.46,1.58,1.54c1.21.07,1.91.7,1.93,1.73.02,1.06-.63,1.67-1.88,1.77q-1.52.12-1.63,1.62c-.09,1.25-.7,1.9-1.76,1.89Z" stroke-width="0"/>
</svg>