<?xml version="1.0" encoding="UTF-8"?>
<svg id="_Слой_1" data-name="Слой 1" xmlns="http://www.w3.org/2000/svg" width="75.45" height="100" viewBox="0 0 75.45 100">
  <path d="M37.74.02c3.8,0,7.6-.05,11.4,0,8.73.14,15.35,4.01,19.72,11.55,2.42,4.18,3.17,8.75,2.6,13.55-.55,4.63-1.91,9.01-3.9,13.2-.19.4-.18.67.1,1.03,3.46,4.51,5.83,9.53,6.96,15.11,1.96,9.69.5,18.86-4.64,27.31-5.54,9.08-13.59,14.84-23.96,17.27-4.45,1.05-8.96,1.22-13.49.55-10.06-1.47-18.26-6.23-24.55-14.2-3.9-4.93-6.36-10.54-7.4-16.75-1.44-8.63-.08-16.82,4.09-24.5.91-1.68,2.06-3.22,3.15-4.8.26-.38.29-.63.09-1.03-1.89-3.94-3.19-8.06-3.82-12.39-.95-6.57.55-12.51,4.74-17.68C12.43,3.8,17.13,1.15,22.8.27c1.15-.18,2.33-.23,3.5-.24,3.82-.03,7.63-.01,11.45-.01ZM16.92,30.66c13.91-8.21,27.73-8.22,41.6,0,.01-.02.05-.08.07-.14.73-2.03,1.31-4.1,1.6-6.24.31-2.24.15-4.46-.85-6.51-2.04-4.18-5.43-6.38-10.09-6.41-7.68-.05-15.37-.03-23.05,0-4.88.01-8.76,2.74-10.45,7.31-.62,1.66-.75,3.39-.54,5.16.28,2.37.9,4.65,1.71,6.85Z" stroke-width="0"/>
</svg>