<?xml version="1.0" encoding="UTF-8"?>
<svg id="_Слой_1" data-name=" Слой 1" xmlns="http://www.w3.org/2000/svg" width="93.33" height="91.7" viewBox="0 0 93.33 91.7">
  <path d="m21.23,90.18c-.37-3.32.4-6.18,3.24-8.21,1.32-.95,2.83-1.43,4.48-1.44,3.71-.02,7.42,0,11.13,0h.69V19.64c0-1.43,0-2.86,0-4.3,0-.19-.11-.47-.25-.56-2.4-1.41-4.77-2.89-7.24-4.18-2.19-1.15-4.63-1.44-7.09-1.31-2.4.14-4.8.39-7.28.6.39.95.73,1.8,1.09,2.65,2.85,6.8,5.7,13.59,8.55,20.39,1.48,3.53,2.96,7.05,4.42,10.59.09.21.12.53.03.72-1.87,4.28-4.7,7.77-9.04,9.76-5.51,2.53-10.88,2.01-15.85-1.46-3.01-2.1-5.13-4.94-6.54-8.28-.09-.2-.08-.51,0-.72,3.28-7.88,6.59-15.76,9.88-23.64,1.28-3.06,2.56-6.12,3.84-9.19.07-.16.12-.32.18-.48-.82-.1-1.64-.17-2.43-.3-1.23-.21-1.86-1.12-1.64-2.32.21-1.08,1.15-1.61,2.34-1.53,1.43.09,2.87.08,4.29-.02,2.73-.19,5.47-.57,8.2-.71,4.28-.22,8.18,1.05,11.81,3.23.88.53,1.74,1.06,2.72,1.66,0-.73-.03-1.4,0-2.07.04-.83.03-1.69.24-2.48.7-2.74,3.58-4.54,6.5-4.15,2.82.38,5.05,2.89,5.04,5.69v6.44c1.08-.13,2.11-.24,3.14-.36,3.95-.46,7.89-.51,11.63,1.02,2.06.84,4.03,1.89,6,2.91,1.82.94,3.59,1.98,5.39,2.94.53.28,1.11.46,1.69.62,1.22.35,1.8,1.29,1.51,2.43-.29,1.11-1.24,1.66-2.47,1.37-.44-.1-.88-.26-1.4-.42.32.8.62,1.55.93,2.29,1.91,4.56,3.82,9.12,5.73,13.67,2.35,5.6,4.7,11.22,7.04,16.83.09.22.15.54.06.74-2.15,4.8-5.4,8.59-10.54,10.41-4.99,1.75-9.76,1.08-14.12-1.9-3.1-2.11-5.27-4.99-6.75-8.38-.1-.23-.1-.58,0-.82,3.39-8.16,6.8-16.31,10.22-24.47,1.3-3.11,2.61-6.22,3.92-9.33.08-.19.15-.39.25-.63-.31-.19-.63-.38-.95-.56-2.21-1.19-4.38-2.45-6.62-3.55-2.61-1.29-5.43-1.7-8.33-1.47-1.98.16-3.95.38-5.93.56-.3.03-.38.15-.38.43v62.51h11.55c3.83,0,6.95,2.32,7.82,5.99.28,1.17.22,2.41.3,3.66H21.23v-.02Zm27.35-9.66V7.47c0-.24,0-.49-.09-.72-.28-.93-1.2-1.45-2.21-1.28-.94.15-1.53.93-1.53,2.02v73.03h3.83Zm16.75-24.49h21.48c-3.58-8.64-7.13-17.24-10.74-25.94-3.62,8.73-7.16,17.32-10.74,25.94Zm-37.16-13.65c-3.57-8.62-7.3-17.21-10.91-25.93-3.62,8.74-7.16,17.32-10.74,25.93h21.65Zm-1.34,4.02H7.4c4.56,7.09,14.79,7.16,19.43,0h0Zm39.52,13.62c2.51,3.29,5.82,5.08,10.23,4.92,3.98-.15,6.94-1.93,9.17-4.92h-19.4Z" fill="none" stroke="#000" stroke-miterlimit="10" stroke-width="3"/>
</svg>