<svg width="20" height="20" viewBox="0 0 20 20" fill="none" xmlns="http://www.w3.org/2000/svg">
<g clip-path="url(#clip0_696_8140)">
<path d="M10.0001 15.0001C10.5951 15.0001 11.1417 15.2084 11.5717 15.5551L10.0001 17.5001L8.42839 15.5551C8.87293 15.1949 9.42795 14.9989 10.0001 15.0001ZM2.34005 1.16089L17.0709 15.8926L15.8926 17.0709L11.5759 12.7542C11.0676 12.5856 10.5356 12.4998 10.0001 12.5001C8.81005 12.5001 7.71672 12.9159 6.85839 13.6101L5.81172 12.3134C6.90676 11.4263 8.2558 10.9108 9.66339 10.8417L7.50005 8.67839C6.31019 9.01566 5.20115 9.59088 4.24005 10.3692L3.19172 9.07256C4.08989 8.34524 5.09879 7.76651 6.18005 7.35839L4.27672 5.45422C3.3293 5.9054 2.43842 6.46678 1.62255 7.12672L0.574219 5.83089C1.33672 5.21422 2.16005 4.67172 3.03422 4.21255L1.16089 2.34006L2.34005 1.16089ZM12.0834 8.57089L10.1801 6.66839L10.0001 6.66672C12.5792 6.66672 14.9476 7.56756 16.8084 9.07256L15.7601 10.3692C14.6863 9.49936 13.4292 8.88448 12.0834 8.57089ZM10.0001 2.50006C13.5709 2.50006 16.8501 3.74756 19.4251 5.83089L18.3776 7.12672C16.0078 5.20726 13.0496 4.16204 10.0001 4.16672C9.26839 4.16672 8.55005 4.22505 7.85005 4.33922L6.43755 2.92506C7.57839 2.64756 8.77255 2.50006 10.0001 2.50006Z" fill="#4787F5"/>
</g>
<defs>
<clipPath id="clip0_696_8140">
<rect width="20" height="20" fill="white"/>
</clipPath>
</defs>
</svg>
