<?xml version="1.0" encoding="UTF-8"?>
<svg id="_Слой_1" data-name="Слой 1" xmlns="http://www.w3.org/2000/svg" width="99.87" height="100" viewBox="0 0 99.87 100">
  <path d="M61.75,60.23c1.09.41,2.09.79,3.08,1.16,3.72,1.39,7.43,2.79,11.15,4.17.48.18.99.28,1.46.48,2.44,1.03,3.48,3.14,2.92,5.73-1.15,5.39-2.26,10.78-3.4,16.16-.57,2.69-1.11,5.39-1.81,8.05-.27,1.02-.82,2.01-1.42,2.89-1.06,1.57-3.84,1.58-4.61-.54-.3-.83-.57-1.74-.56-2.62,0-2.22.16-4.44.26-6.67.07-1.4.16-2.79.25-4.19.17-2.75.33-5.5.53-8.25.04-.52-.29-.52-.6-.58-1.93-.38-3.86-.75-5.78-1.12-3.55-.68-7.1-1.37-10.66-2.03-.28-.05-.67.03-.9.2-5.8,4.26-11.58,8.53-17.37,12.81-5.88,4.34-11.75,8.68-17.64,13-1.23.9-2.64,1.21-4.13.84-2.01-.49-2.73-2.15-2.54-4.19.1-1.06.67-1.91,1.42-2.68,1.05-1.08,2.08-2.18,3.07-3.32,3.35-3.89,6.67-7.8,10.01-11.71,3.38-3.96,6.77-7.92,10.15-11.88,1.6-1.87,3.2-3.75,4.8-5.63.51-.59.54-.85.1-1.52-1-1.52-2.05-3.02-3.02-4.55-1.78-2.81-3.12-5.83-4.27-8.94-1.65-4.5-2.74-9.14-3.48-13.87-.45-2.86-.74-5.76-1.04-8.64-.17-1.63-.24-3.26-.33-4.9-.02-.41-.18-.55-.58-.5-2.1.25-4.2.48-6.29.72-.69.08-1.38.2-2.08.27-.37.04-.5.14-.42.55.52,2.67,1.01,5.34,1.51,8.01.17.92.4,1.83.49,2.76.21,2.32-1.22,3.98-3.62,4.38-2.23.37-4.45.77-6.67,1.18-2.47.46-4.43-.96-4.82-3.19-.75-4.3-1.58-8.59-2.38-12.89-.67-3.61-1.36-7.21-2.03-10.82C.29,7.32.05,6.24,0,5.14-.07,3.2,1.26,1.69,3.17,1.36,5.63.94,8.08.48,10.54.07c2.21-.36,4.1.93,4.52,3.45.46,2.79,1.05,5.55,1.56,8.33.09.5.32.61.78.55,3.01-.37,6.01-.76,9.03-1.07,2.03-.21,4.07-.36,6.1-.46,3.77-.19,7.53-.37,11.3-.46,3.83-.09,7.66-.09,11.49-.08,2.24.01,4.49.09,6.73.22,3.54.21,7.08.44,10.62.74,2.8.24,5.59.59,8.38.9.47.05.95.13,1.42.21.46.09.66-.08.74-.54.39-2.17.8-4.33,1.23-6.49.22-1.1.37-2.23.79-3.25.64-1.59,2.36-2.37,4.05-2.06,2.46.44,4.92.87,7.38,1.3,2.16.37,3.56,2.38,3.15,4.55-1.09,5.85-2.18,11.69-3.27,17.54-.54,2.89-1.13,5.76-1.61,8.66-.37,2.22-2.32,3.63-4.76,3.2-2.42-.43-4.84-.87-7.26-1.31-2.01-.36-3.45-2.41-3.08-4.42.64-3.47,1.3-6.93,1.95-10.39.13-.7.13-.7-.55-.77-2.61-.29-5.22-.57-7.83-.86-.47-.05-.68.05-.74.58-.45,4.14-.89,8.29-1.42,12.43-.55,4.3-1.4,8.55-2.47,12.75-1.41,5.53-3.37,10.84-6.36,15.73-.22.36-.4.74-.64,1.19ZM49.9,46.47c.73-.08,1.46-.13,2.19-.23,2.52-.37,4.62-1.54,6.33-3.41,1.78-1.95,2.9-4.28,3.79-6.73,1.18-3.25,1.93-6.62,2.54-10.02.51-2.87.95-5.76,1.43-8.64.06-.38-.06-.54-.45-.56-.5-.02-.99-.08-1.48-.1-3.33-.11-6.66-.27-9.98-.31-3.7-.04-7.4,0-11.1.08-2.98.06-5.95.22-8.93.33-.44.02-.52.19-.44.59.15.76.24,1.52.38,2.28.7,3.84,1.33,7.7,2.14,11.53.67,3.21,1.73,6.31,3.43,9.15,2.3,3.84,5.61,5.99,10.17,6.05Z" stroke-width="0"/>
  <path d="M57.52,34.55c.12,4.02-3.26,7.59-7.45,7.64-4.37.04-7.72-3.29-7.78-7.59-.05-4.05,3.2-7.64,7.55-7.68,4.57-.04,7.8,3.75,7.68,7.63Z" stroke-width="0"/>
</svg>