<?xml version="1.0" encoding="UTF-8"?>
<svg id="_Слой_1" data-name="Слой 1" xmlns="http://www.w3.org/2000/svg" width="99.88" height="100" viewBox="0 0 99.88 100">
  <path d="M70.68,100c-.19,0-.38-.01-.57-.04-1.65-.21-2.97-1.26-3.54-2.83-.31-.85-.66-1.98-.66-3.17,0-1.7.09-3.4.18-5.05l.08-1.46c.05-1.05.12-2.09.18-3.13l.17-2.75c.1-1.62.2-3.24.31-4.86-.97-.19-1.94-.37-2.91-.56l-3.53-.68c-2.65-.51-5.3-1.02-7.95-1.51-4.26,3.13-8.51,6.27-12.77,9.41l-6.9,5.09c-4.57,3.37-9.13,6.74-13.71,10.1-1.66,1.22-3.59,1.61-5.57,1.13-2.73-.67-4.19-2.94-3.9-6.07.12-1.33.75-2.56,1.9-3.74,1.14-1.17,2.05-2.16,2.87-3.1,2.21-2.57,4.41-5.14,6.61-7.72l17.05-19.96c-.27-.4-.53-.8-.8-1.19-.62-.92-1.23-1.83-1.83-2.76-1.61-2.54-2.97-5.38-4.28-8.96-1.52-4.14-2.65-8.62-3.44-13.7-.4-2.55-.67-5.14-.93-7.64l-.08-.76c-.12-1.11-.18-2.22-.24-3.31-.61.07-1.23.14-1.84.21l-2.71.31c-.15.02-.29.04-.44.06.31,1.6.6,3.2.9,4.81l.25,1.36c.05.24.1.49.15.73.14.67.28,1.36.35,2.11.29,3.2-1.76,5.73-5.09,6.28-2.13.35-4.26.74-6.38,1.13-1.66.31-3.28,0-4.55-.9-1.23-.86-2.06-2.18-2.33-3.73-.53-3.04-1.11-6.14-1.68-9.13l-1.37-7.3c-.4-2.12-.8-4.23-1.19-6.35l-.1-.53C.23,8.9.04,7.96,0,6.95-.11,4.14,1.8,1.83,4.64,1.34c.92-.16,1.84-.32,2.76-.49,1.45-.26,2.89-.52,4.34-.75,3.24-.53,6,1.53,6.55,4.9.26,1.6.58,3.23.89,4.81.13.66.26,1.32.38,1.99l.44-.05c2.33-.29,4.74-.59,7.12-.84,1.89-.2,3.84-.34,5.97-.45,4.05-.2,7.42-.36,10.92-.44,3.92-.09,7.81-.09,11.1-.07,2.1,0,4.25.08,6.57.21,3.98.23,7.24.46,10.26.72,1.97.17,3.95.39,5.86.61.75.09,1.5.17,2.24.25.06,0,.13.01.19.02.31-1.68.63-3.37.97-5.05l.12-.63c.17-.93.35-1.88.74-2.84.94-2.32,3.42-3.62,6.02-3.15,2.36.42,4.72.84,7.08,1.25,1.52.26,2.83,1.09,3.69,2.34.87,1.25,1.19,2.77.9,4.29l-3.15,16.86c-.16.88-.33,1.76-.5,2.64-.36,1.85-.73,3.77-1.04,5.65-.25,1.54-1.07,2.86-2.29,3.72-1.27.9-2.87,1.23-4.52.93-1.71-.3-3.42-.61-5.13-.92l-1.86-.34c-1.43-.26-2.74-1.11-3.59-2.35-.86-1.24-1.19-2.72-.92-4.15.44-2.37.88-4.74,1.33-7.11l.28-1.52-.82-.09c-1.35-.15-2.69-.29-4.04-.44-.38,3.51-.78,7.13-1.23,10.7-.52,4.04-1.31,8.12-2.42,12.49-1.45,5.69-3.36,10.54-5.82,14.79l2.63.99c2.98,1.12,5.96,2.24,8.95,3.35.16.06.33.11.49.15.34.1.67.2.99.33,3.16,1.34,4.67,4.28,3.94,7.68-.6,2.81-1.19,5.62-1.78,8.43-.5,2.37-.99,4.74-1.5,7.11l-.27,1.28c-.45,2.15-.92,4.37-1.49,6.55-.27,1.05-.81,2.15-1.64,3.37-.82,1.2-2.23,1.92-3.72,1.92ZM52.29,70.07c.18,0,.36.02.53.05,2.77.51,5.54,1.05,8.31,1.58l3.52.68c1.33.25,2.66.51,3.99.77,1.69.3,2.2,1.53,2.12,2.59-.15,2.02-.27,4.05-.39,6.07l-.17,2.76c-.06,1.03-.13,2.05-.18,3.08l-.08,1.47c-.09,1.6-.17,3.25-.17,4.84,0,.6.24,1.35.43,1.86.05.15.14.29.4.32.24.03.52-.07.63-.23.58-.85.94-1.57,1.1-2.19.55-2.09,1.01-4.26,1.45-6.37l.27-1.29c.5-2.37,1-4.74,1.49-7.1.59-2.81,1.18-5.63,1.78-8.44.35-1.62-.2-2.71-1.68-3.34-.18-.08-.37-.13-.56-.18-.26-.08-.52-.15-.77-.25-2.98-1.11-5.97-2.23-8.95-3.35l-6.79-2.55,1.24-2.32c.16-.31.31-.58.47-.85,2.51-4.12,4.44-8.89,5.89-14.6,1.07-4.21,1.84-8.15,2.33-12.03.46-3.62.86-7.32,1.25-10.89l.11-1.02c.08-.77.39-1.36.9-1.77.51-.41,1.16-.58,1.93-.49,1.77.2,3.53.39,5.3.59l2.22.24c.53.06,1.33.15,1.89.91.57.77.42,1.56.32,2.09l-.54,2.89c-.45,2.37-.89,4.73-1.33,7.1-.08.42.03.88.3,1.26.27.4.68.67,1.11.75l1.86.34c1.71.31,3.41.62,5.12.92.64.11,1.2.01,1.63-.29.38-.27.63-.69.71-1.21.32-1.93.69-3.87,1.05-5.75.17-.87.34-1.75.5-2.62l3.15-16.87c.09-.5,0-.99-.28-1.39-.27-.39-.69-.65-1.19-.74-2.37-.41-4.74-.82-7.1-1.25-.65-.12-1.48.09-1.77.81-.24.6-.38,1.33-.52,2.11l-.13.68c-.41,2.07-.8,4.14-1.18,6.21-.14.75-.48,1.33-1.03,1.71-.37.26-1.01.53-1.92.36-.4-.08-.81-.14-1.22-.18-.75-.08-1.51-.17-2.26-.26-1.89-.22-3.84-.44-5.75-.6-2.98-.25-6.21-.48-10.16-.71-2.25-.13-4.34-.2-6.37-.21-3.26-.02-7.12-.02-10.99.07-3.45.08-6.8.24-10.82.44-2.06.1-3.95.24-5.76.43-2.35.25-4.73.54-7.05.83l-1.6.2c-1.48.18-2.61-.64-2.88-2.09-.19-1.04-.39-2.08-.6-3.12-.31-1.61-.64-3.27-.91-4.93-.21-1.29-.99-1.92-2.13-1.73-1.43.24-2.86.49-4.29.74-.93.17-1.85.33-2.78.49-.73.13-1.49.63-1.45,1.67.03.72.18,1.49.33,2.3l.11.56c.39,2.11.79,4.22,1.19,6.34l1.37,7.3c.57,3,1.15,6.11,1.69,9.18.09.53.35.96.74,1.23.43.3,1,.39,1.65.27,2.15-.4,4.3-.79,6.45-1.14,1.36-.23,1.99-.95,1.89-2.15-.05-.52-.16-1.08-.28-1.67-.05-.27-.11-.53-.16-.8l-.25-1.36c-.39-2.11-.78-4.22-1.19-6.32-.18-.91.11-1.54.38-1.9.39-.53.97-.83,1.73-.91.35-.04.7-.08,1.05-.13.31-.04.61-.09.92-.12l2.72-.31c1.11-.13,2.22-.25,3.33-.38.91-.11,1.52.22,1.87.51.35.29.78.84.83,1.77l.05.96c.07,1.26.13,2.46.26,3.65l.08.77c.26,2.45.52,4.99.91,7.45.76,4.82,1.82,9.06,3.25,12.97,1.22,3.31,2.46,5.93,3.92,8.23.57.9,1.17,1.79,1.77,2.68.38.56.75,1.11,1.12,1.67.88,1.34.81,2.54-.24,3.77l-17.39,20.36c-2.2,2.58-4.4,5.16-6.62,7.74-.86,1-1.83,2.05-3.03,3.28-.68.7-.8,1.12-.82,1.41-.16,1.7.58,1.88.98,1.98.86.21,1.64.05,2.38-.49,4.57-3.36,9.13-6.73,13.7-10.1l6.9-5.09c4.35-3.21,8.7-6.43,13.06-9.63.51-.38,1.18-.58,1.83-.58ZM52.11,73.9s0,0,0,0c0,0,0,0,0,0ZM27.93,20.59h0,0ZM49.99,48.53h-.11c-4.92-.07-8.76-2.34-11.41-6.75-1.61-2.69-2.76-5.76-3.53-9.39-.56-2.66-1.04-5.36-1.5-7.98-.19-1.05-.37-2.11-.56-3.16-.06-.34-.11-.67-.17-1.01-.06-.38-.12-.77-.19-1.15-.16-.79-.02-1.47.41-2.01.3-.37.85-.83,1.83-.86,1.02-.04,2.04-.08,3.06-.12,1.85-.08,3.7-.16,5.56-.19,4.19-.08,7.6-.11,10.73-.07,2.33.03,4.69.12,6.96.2.89.03,1.79.07,2.68.1.27,0,.54.03.8.05.21.02.41.04.62.04.95.03,1.5.47,1.8.83.3.36.62.99.47,1.94-.17,1.02-.33,2.04-.5,3.05-.28,1.76-.57,3.52-.88,5.27-.72,4.05-1.49,7.12-2.52,9.96-1.13,3.11-2.37,5.3-4.03,7.12-1.98,2.17-4.41,3.47-7.22,3.88-.51.07-1.03.12-1.54.17l-.75.07ZM36.57,20.01c.03.19.06.38.09.56.19,1.06.38,2.12.57,3.18.46,2.59.93,5.26,1.48,7.85.67,3.2,1.68,5.89,3.06,8.2,1.92,3.21,4.56,4.8,8.06,4.88l.56-.05c.45-.04.9-.08,1.34-.15,1.94-.28,3.56-1.16,4.94-2.67,1.3-1.42,2.3-3.22,3.25-5.83.95-2.62,1.68-5.5,2.35-9.32.31-1.73.59-3.47.87-5.21.08-.49.16-.98.24-1.47-.82-.03-1.64-.06-2.46-.09-2.25-.09-4.58-.17-6.86-.2-3.1-.03-6.47-.01-10.61.07-1.82.04-3.65.11-5.47.19-.47.02-.94.04-1.41.06Z" stroke-width="0"/>
  <path d="M50.55,39.6c-4.95,0-8.86-3.85-8.92-8.81-.03-2.32.89-4.61,2.53-6.29,1.65-1.69,3.87-2.63,6.24-2.65,2.48-.02,4.73.92,6.43,2.65,1.65,1.68,2.56,3.94,2.51,6.21.05,2.24-.83,4.48-2.44,6.15-1.66,1.73-3.88,2.7-6.25,2.72-.03,0-.06,0-.09,0ZM50.47,25.71s-.03,0-.04,0c-1.34.01-2.59.54-3.52,1.49-.93.95-1.45,2.24-1.43,3.54.04,2.87,2.22,5.01,5.08,5.01.02,0,.04,0,.06,0,1.32-.01,2.57-.56,3.51-1.54.91-.94,1.4-2.19,1.37-3.42v-.06s0-.06,0-.06c.04-1.25-.48-2.52-1.41-3.47-.95-.97-2.22-1.5-3.6-1.5Z" stroke-width="0"/>
</svg>